<mxfile host="app.diagrams.net" modified="2023-08-07T08:58:23.729Z" agent="Mozilla/5.0 (Windows NT 10.0; Win64; x64) AppleWebKit/537.36 (KHTML, like Gecko) Chrome/115.0.0.0 Safari/537.36" etag="Ca5zTR2p7IKs9olUbsnM" version="21.6.6" type="device">
  <diagram name="Page-1" id="aSwShvzEALBknJUsiTA0">
    <mxGraphModel dx="1841" dy="993" grid="1" gridSize="10" guides="1" tooltips="1" connect="1" arrows="1" fold="1" page="1" pageScale="1" pageWidth="583" pageHeight="413" math="0" shadow="0">
      <root>
        <mxCell id="0" />
        <mxCell id="1" parent="0" />
        <mxCell id="uUjHZWE25436g9PH0L33-1" value="resumed" style="rounded=0;whiteSpace=wrap;html=1;fillColor=#d5e8d4;strokeColor=#82b366;" vertex="1" parent="1">
          <mxGeometry x="166" y="39" width="120" height="60" as="geometry" />
        </mxCell>
        <mxCell id="uUjHZWE25436g9PH0L33-2" value="inactive" style="rounded=0;whiteSpace=wrap;html=1;fillColor=#f8cecc;strokeColor=#b85450;" vertex="1" parent="1">
          <mxGeometry x="166" y="129" width="120" height="60" as="geometry" />
        </mxCell>
        <mxCell id="uUjHZWE25436g9PH0L33-3" value="paused" style="rounded=0;whiteSpace=wrap;html=1;fillColor=#f8cecc;strokeColor=#b85450;" vertex="1" parent="1">
          <mxGeometry x="166" y="219" width="120" height="60" as="geometry" />
        </mxCell>
        <mxCell id="uUjHZWE25436g9PH0L33-4" value="detached" style="rounded=0;whiteSpace=wrap;html=1;fillColor=#f8cecc;strokeColor=#b85450;" vertex="1" parent="1">
          <mxGeometry x="166" y="309" width="120" height="60" as="geometry" />
        </mxCell>
        <mxCell id="uUjHZWE25436g9PH0L33-7" value="" style="endArrow=classic;html=1;rounded=0;" edge="1" parent="1">
          <mxGeometry width="50" height="50" relative="1" as="geometry">
            <mxPoint x="92" y="114" as="sourcePoint" />
            <mxPoint x="92" y="294" as="targetPoint" />
          </mxGeometry>
        </mxCell>
        <mxCell id="uUjHZWE25436g9PH0L33-8" value="&lt;ul&gt;&lt;li&gt;&lt;b&gt;Aplikacija je v ospredju&lt;/b&gt;&lt;/li&gt;&lt;/ul&gt;" style="text;html=1;align=center;verticalAlign=middle;resizable=0;points=[];autosize=1;strokeColor=none;fillColor=none;" vertex="1" parent="1">
          <mxGeometry x="292" y="44" width="200" height="50" as="geometry" />
        </mxCell>
        <mxCell id="uUjHZWE25436g9PH0L33-10" value="&lt;ul style=&quot;line-height: 140%;&quot;&gt;&lt;li&gt;&lt;b&gt;Aplikacija delno vidna&lt;/b&gt;&lt;/li&gt;&lt;li&gt;&lt;b&gt;Aplikacija ni v žarišču&lt;/b&gt;&lt;/li&gt;&lt;/ul&gt;" style="text;html=1;align=center;verticalAlign=middle;resizable=0;points=[];autosize=1;strokeColor=none;fillColor=none;" vertex="1" parent="1">
          <mxGeometry x="292" y="119" width="190" height="70" as="geometry" />
        </mxCell>
        <mxCell id="uUjHZWE25436g9PH0L33-11" value="&lt;ul style=&quot;line-height: 140%;&quot;&gt;&lt;li&gt;&lt;b&gt;Aplikacija je v ozadju&lt;/b&gt;&lt;/li&gt;&lt;/ul&gt;" style="text;html=1;align=center;verticalAlign=middle;resizable=0;points=[];autosize=1;strokeColor=none;fillColor=none;" vertex="1" parent="1">
          <mxGeometry x="297" y="224" width="180" height="50" as="geometry" />
        </mxCell>
        <mxCell id="uUjHZWE25436g9PH0L33-12" value="&lt;ul style=&quot;line-height: 140%;&quot;&gt;&lt;li style=&quot;text-align: left;&quot;&gt;&lt;b&gt;Pogled je uničen&lt;/b&gt;&lt;/li&gt;&lt;li&gt;&lt;b&gt;Aplikacija je zaprta&lt;/b&gt;&lt;/li&gt;&lt;/ul&gt;" style="text;html=1;align=center;verticalAlign=middle;resizable=0;points=[];autosize=1;strokeColor=none;fillColor=none;" vertex="1" parent="1">
          <mxGeometry x="292" y="304" width="170" height="70" as="geometry" />
        </mxCell>
      </root>
    </mxGraphModel>
  </diagram>
</mxfile>
